<?xml version="1.0" encoding="utf-8"?>
<!-- Generator: Adobe Illustrator 23.0.1, SVG Export Plug-In . SVG Version: 6.00 Build 0)  -->
<svg version="1.1"
	 id="svg3047" xmlns:cc="http://creativecommons.org/ns#" xmlns:dc="http://purl.org/dc/elements/1.1/" xmlns:rdf="http://www.w3.org/1999/02/22-rdf-syntax-ns#" xmlns:svg="http://www.w3.org/2000/svg"
	 xmlns="http://www.w3.org/2000/svg" xmlns:xlink="http://www.w3.org/1999/xlink" x="0px" y="0px" viewBox="0 0 256 256"
	 style="enable-background:new 0 0 256 256;" xml:space="preserve">
<style type="text/css">
	.st0{fill:#FFFFFF;}
</style>
<title  id="title4531">Whisker Menu icon</title>
<path id="layer1" class="st0" d="M224.3,133.7c-8.1-18.3-56.7-72.8-58.7-74.8c-4.1-4.1-12.2-16.3-14.2-18.3
	c8.1-4.1,14.2-10.2,14.2-18.3C165.6,10.2,149.3,0,127,0S88.4,10.2,88.4,22.3c0,6.1,6.1,12.2,14.2,16.3C96.5,46.7,82.3,63,80.2,65
	l77.2,85.3c6.1,6.1,6.1,18.3-2,24.4l-8.1,6.1c-6.1,6.1-18.3,6.1-24.4-2l-67-79.2c-4.1,6.1-8.1,12.2-12.2,18.3
	c-8.1,16.3-16.3,30.5-18.3,46.7c0,2,0,6.1,0,8.1c0,46.7,46.7,83.3,103.6,83.3s103.6-36.6,103.6-83.3
	C232.6,158.4,229.2,143.5,224.3,133.7z"/>
</svg>
