<?xml version="1.0" encoding="UTF-8" standalone="no"?>
<!-- Generator: Adobe Illustrator 23.0.1, SVG Export Plug-In . SVG Version: 6.00 Build 0)  -->

<svg
   version="1.1"
   id="svg3047"
   x="0px"
   y="0px"
   viewBox="0 0 256 256"
   style="enable-background:new 0 0 256 256;"
   xml:space="preserve"
   sodipodi:docname="sorunme-symbolic.svg"
   inkscape:version="1.1.1 (3bf5ae0d25, 2021-09-20)"
   xmlns:inkscape="http://www.inkscape.org/namespaces/inkscape"
   xmlns:sodipodi="http://sodipodi.sourceforge.net/DTD/sodipodi-0.dtd"
   xmlns="http://www.w3.org/2000/svg"
   xmlns:svg="http://www.w3.org/2000/svg"
   xmlns:rdf="http://www.w3.org/1999/02/22-rdf-syntax-ns#"
   xmlns:cc="http://creativecommons.org/ns#"
   xmlns:dc="http://purl.org/dc/elements/1.1/"><defs
   id="defs57" /><sodipodi:namedview
   id="namedview55"
   pagecolor="#505050"
   bordercolor="#eeeeee"
   borderopacity="1"
   inkscape:pageshadow="0"
   inkscape:pageopacity="0"
   inkscape:pagecheckerboard="0"
   showgrid="false"
   inkscape:zoom="1.1338568"
   inkscape:cx="-4.8507008"
   inkscape:cy="123.03141"
   inkscape:window-width="1920"
   inkscape:window-height="1020"
   inkscape:window-x="0"
   inkscape:window-y="34"
   inkscape:window-maximized="1"
   inkscape:current-layer="svg3047" />
<style
   type="text/css"
   id="style50">
	.st0{fill:#FFFFFF;}
</style>
<title
   id="title4531">Whisker Menu icon</title>
<path
   id="layer1"
   class="st0"
   d="m 191.00835,131.76859 c -5.35538,-12.09919 -37.48764,-48.132268 -38.80996,-49.454584 -2.71075,-2.710748 -8.06613,-10.776873 -9.38845,-12.099189 5.35538,-2.710747 9.38845,-6.74381 9.38845,-12.099189 0,-8.000011 -10.77688,-14.74382 -25.5207,-14.74382 -14.74383,0 -25.5207,6.743809 -25.5207,14.74382 0,4.033062 4.03307,8.066125 9.38844,10.776873 -4.03306,5.35538 -13.421492,16.132253 -14.809923,17.454567 l 51.041373,56.396742 c 4.03308,4.03306 4.03308,12.09919 -1.32231,16.13225 l -5.35538,4.03306 c -4.03306,4.03306 -12.09919,4.03306 -16.13225,-1.32231 l -44.297574,-52.3637 c -2.710748,4.03306 -5.35538,8.06613 -8.066127,12.09919 -5.355378,10.77687 -10.776871,20.1653 -12.099187,30.87607 0,1.32231 0,4.03306 0,5.35537 0,30.87607 30.876071,55.07445 68.495948,55.07445 37.61988,0 68.49595,-24.19838 68.49595,-55.07445 0,-9.45456 -2.24793,-19.3058 -5.4876,-25.78515 z"
   style="stroke-width:0.661158;fill:#d3d3d3;fill-opacity:1" />
<metadata
   id="metadata374"><rdf:RDF><cc:Work
       rdf:about=""><dc:title>Whisker Menu icon</dc:title></cc:Work></rdf:RDF></metadata></svg>
