<svg xmlns="http://www.w3.org/2000/svg" viewBox="0 0 528.44 358.22"><defs><style>.cls-1{font-size:253px;font-family:Bauhaus93, "Bauhaus 93";}</style></defs><title>sorunme</title><g id="Layer_2_copy" data-name="Layer 2 copy"><path d="M302,292.5a62.67,62.67,0,0,1-50.58-25.81l64-52.16-73.94-.13A62.5,62.5,0,1,1,302,292.5Z" transform="translate(-93.94 -29.76)"/><path d="M302,168a62,62,0,1,1-49.89,98.78l51.68-42.13,10.86-8.85,2.17-1.77H314l-14,0-57.89-.1A61.84,61.84,0,0,1,302,168m0-1a63,63,0,0,0-61.17,47.9L300,215l14,0-10.86,8.86L250.74,266.6A63,63,0,1,0,302,167Z" transform="translate(-93.94 -29.76)"/></g><g id="Layer_1_copy_4" data-name="Layer 1 copy 4"><polygon points="222.18 42.27 18.06 210.24 89.31 210.37 0 358.22 206.06 190.24 132.88 190.12 222.18 42.27"/><text class="cls-1" transform="translate(273.32 210.87)">r</text><path d="M609.91,133.37Q594,114.21,567.53,114.22q-23.1,0-39,16.49A55.51,55.51,0,0,0,512.7,167h-.06V168c0,1.1-.08,2.2-.08,3.32v67.16c-.49,5.75-3.34,8.64-8.56,8.64q-8.78,0-8.77-10.5V167H449v65q0,26.56,12.48,41.51,16.06,19.14,42.37,19.14,23.1,0,39-16.49A55.33,55.33,0,0,0,558.7,240h.06v-1c0-1.08.09-2.18.09-3.29V168.56c.48-5.83,3.33-8.76,8.56-8.76q8.77,0,8.77,10.63V240h46.2V175Q622.38,148.32,609.91,133.37Z" transform="translate(-93.94 -29.76)"/></g></svg>